<svg id="visual" viewBox="0 0 900 600" width="900" height="600" xmlns="http://www.w3.org/2000/svg" xmlns:xlink="http://www.w3.org/1999/xlink" version="1.1"><g transform="translate(447.7607889621844 280.1374821997981)"><path d="M130.1 -149.5C174.9 -117.4 221.9 -82.4 236.1 -36.5C250.2 9.4 231.6 66.2 201.2 113.6C170.8 160.9 128.5 198.9 76.7 223C25 247.1 -36.3 257.5 -72.3 230.5C-108.3 203.5 -119.1 139.3 -152.1 86C-185.1 32.6 -240.3 -9.7 -236.2 -43.2C-232.1 -76.6 -168.8 -101.1 -119.5 -132.4C-70.3 -163.8 -35.1 -201.9 3.7 -206.3C42.6 -210.8 85.3 -181.6 130.1 -149.5" fill="#ee2f21"></path></g></svg>