<svg xmlns="http://www.w3.org/2000/svg" xmlns:xlink="http://www.w3.org/1999/xlink" viewBox="0,0,256,256" width="32px" height="32px" fill-rule="nonzero"><g fill="#ffffff" fill-rule="nonzero" stroke="none" stroke-width="1" stroke-linecap="butt" stroke-linejoin="miter" stroke-miterlimit="10" stroke-dasharray="" stroke-dashoffset="0" font-family="none" font-weight="none" font-size="none" text-anchor="none" style="mix-blend-mode: normal"><g transform="scale(8,8)"><path d="M16,4c-6.61557,0 -12,5.38443 -12,12c0,6.61557 5.38443,12 12,12c6.61557,0 12,-5.38443 12,-12c0,-6.61557 -5.38443,-12 -12,-12zM16,6c5.53469,0 10,4.46531 10,10c0,5.02739 -3.68832,9.16128 -8.51172,9.87891v-6.96289h2.84766l0.44727,-2.89258h-3.29492v-1.58008c0,-1.201 0.39458,-2.26758 1.51758,-2.26758h1.80469v-2.52344c-0.317,-0.043 -0.98786,-0.13672 -2.25586,-0.13672c-2.648,0 -4.19922,1.39798 -4.19922,4.58398v1.92383h-2.72266v2.89258h2.72266v6.9375c-4.74661,-0.78287 -8.35547,-4.88047 -8.35547,-9.85352c0,-5.53469 4.46531,-10 10,-10z"></path></g></g></svg>