<svg id="Layer_1" data-name="Layer 1" xmlns="http://www.w3.org/2000/svg" viewBox="0 0 70 52.37"><defs><style>.cls-1{fill:#9d2422;}.cls-2{fill:#fff;}.cls-3,.cls-4{fill:#3caa49;}.cls-4,.cls-5{stroke:#fff;stroke-linecap:round;}.cls-4,.cls-5,.cls-6{stroke-miterlimit:10;}.cls-4{stroke-width:0.45px;}.cls-5{fill:none;}.cls-5,.cls-6{stroke-width:0.9px;}.cls-6,.cls-7{fill:#1d1d1b;}.cls-6{stroke:#1d1d1b;}.cls-8{fill:#9b2320;}.cls-9{fill:#d2818c;}</style></defs><path class="cls-1" d="M380.73,288.29a25.61,25.61,0,0,1,21.77-27.1.22.22,0,0,1,.06.44A25.34,25.34,0,0,0,382.07,279a25,25,0,0,0-1.13,9.34.12.12,0,0,1-.1.11.11.11,0,0,1-.11-.11Z" transform="translate(-371.32 -259.6)"/><path class="cls-1" d="M420.65,308.09c-7.85,5.09-18.59,5.08-26.68.52-.22-.14-1-.58-1.2-.73l-.2-.12c-.06-.05-.15-.06-.15-.2a.08.08,0,0,1,.06-.08c.12-.06.17,0,.24.06l.19.12c.23.16.94.57,1.19.71a26.09,26.09,0,0,0,25.63,0,5.07,5.07,0,0,1,.82-.46.09.09,0,0,1,.13.07.09.09,0,0,1,0,.11Z" transform="translate(-371.32 -259.6)"/><path class="cls-2" d="M383.06,288.54c-.14-.14-.1-.38-.12-.55l0-.57A23.41,23.41,0,0,1,395.14,266a23.09,23.09,0,0,1,8.61-2.65.21.21,0,0,1,.24.19.22.22,0,0,1-.19.24,22.65,22.65,0,0,0-8.46,2.6,23.07,23.07,0,0,0-12.17,21.07l0,.56c0,.14.06.43,0,.56a.06.06,0,0,1-.1,0Z" transform="translate(-371.32 -259.6)"/><path class="cls-2" d="M415.29,306.9a22.67,22.67,0,0,1-17.65.28l-.55-.24-.28-.12c-.1-.06-.35-.14-.26-.27s.26,0,.36.06l.27.12.55.22a24,24,0,0,0,15.24.58c.76-.23,1.52-.49,2.25-.79a.09.09,0,0,1,.12.05.1.1,0,0,1,0,.11Z" transform="translate(-371.32 -259.6)"/><path class="cls-2" d="M409.55,263.42a23.36,23.36,0,0,1,19.86,21.4,22.3,22.3,0,0,1,0,3.37,3.5,3.5,0,0,1-.19,1.11.05.05,0,0,1-.07,0s0,0,0,0a5.24,5.24,0,0,1,0-1.12c0-.37,0-.74.05-1.11,0-.72,0-1.49-.07-2.22a23,23,0,0,0-19.63-21,.21.21,0,0,1-.18-.24.23.23,0,0,1,.25-.19Z" transform="translate(-371.32 -259.6)"/><path class="cls-2" d="M410.69,267.52a19.31,19.31,0,0,1,14.86,14.76,21.57,21.57,0,0,1,.24,7.3s0,.06-.07.05a.06.06,0,0,1-.05-.06,20.14,20.14,0,0,0-.28-7.26A19,19,0,0,0,410.61,268a.22.22,0,0,1,.08-.43Z" transform="translate(-371.32 -259.6)"/><path class="cls-3" d="M404.25,259.61c4.05,1.28,4.82,6.14,3.66,9.73a.12.12,0,0,1-.16.08.12.12,0,0,1-.08-.16,10.53,10.53,0,0,0,.38-2.74c0-2.67-1.17-5.74-3.87-6.67a.13.13,0,0,1,.07-.24Z" transform="translate(-371.32 -259.6)"/><path class="cls-4" d="M405.2,263.47" transform="translate(-371.32 -259.6)"/><path class="cls-3" d="M407.19,267.85c-.65-1.53-1.34-3.34-1.92-4.9a1.32,1.32,0,0,1-.16-.74.12.12,0,0,1,.19-.07,1.22,1.22,0,0,1,.37.66l.26.71c.25.7.75,2.13,1,2.84.16.48.32.95.47,1.43a.11.11,0,0,1-.2.07Z" transform="translate(-371.32 -259.6)"/><path class="cls-3" d="M406.62,268.47l-1.35-2.07-.12-.18c-.11-.19-.34-.27-.27-.56s.46,0,.5.18.46.86.59,1.09c.24.42.58,1,.83,1.43a.11.11,0,0,1-.18.11Z" transform="translate(-371.32 -259.6)"/><path class="cls-2" d="M392.12,298.16c-2.81-1.74-3.75-4-4.27-7.18,0,0,.06-.06.07,0a11.35,11.35,0,0,0,2.66,5.7,15.33,15.33,0,0,0,1.58,1.43s0,.09,0,.06Z" transform="translate(-371.32 -259.6)"/><path class="cls-5" d="M391.27,274a19.72,19.72,0,0,1,12-6.57" transform="translate(-371.32 -259.6)"/><path class="cls-2" d="M387.12,292.2a3.78,3.78,0,0,1-.24-.81,19.46,19.46,0,0,1-.41-2.52,20.54,20.54,0,0,1,1.47-10,.22.22,0,0,1,.4.18,19.11,19.11,0,0,0-1.78,9.85,21.45,21.45,0,0,0,.39,2.51,4.7,4.7,0,0,1,.17.83Z" transform="translate(-371.32 -259.6)"/><path class="cls-2" d="M420.53,297.82a6.37,6.37,0,0,0,3.66-5.88.05.05,0,1,1,.1,0,5.66,5.66,0,0,1-2.05,5.09,5.41,5.41,0,0,1-1.67.9.05.05,0,0,1,0-.1Z" transform="translate(-371.32 -259.6)"/><path class="cls-2" d="M395.24,279.28s0,.06-.11.06c-.3,0-.75,0-1.34-.07s-1.05-.07-1.35-.07a3.23,3.23,0,0,0-.66,0c-.15.06-.22.22-.22.49s.1.5.28.54a1.6,1.6,0,0,0,.36,0l1.22,0c.54,0,.95,0,1.22,0s.19.3.19.89a3.42,3.42,0,0,1-.06.9.16.16,0,0,1-.16.09l-.37,0c-.42,0-1.06-.05-1.91-.05h-.47c-.2,0-.3.1-.3.22,0,.48,0,1,.07,1.65s.06.82.06.76c0,.09-.12.14-.37.15h-.52a9.43,9.43,0,0,1-1.42-.07c-.12,0-.18-.08-.18-.16,0-.37,0-.93.05-1.68s0-1.32,0-1.69,0-1-.07-1.68c-.07-1-.11-1.6-.11-1.68v-.06c0-.09.06-.13.18-.13l1.32,0h1.32c.31,0,.79,0,1.42-.06s1.1-.06,1.41-.06.31.07.33.21,0,.36,0,.65c0,.07,0,.22.07.43A2.26,2.26,0,0,1,395.24,279.28Z" transform="translate(-371.32 -259.6)"/><path class="cls-2" d="M404.12,281.19a3.43,3.43,0,0,1-1.17,2.64,4.73,4.73,0,0,1-6.05,0,3.4,3.4,0,0,1-1.18-2.63,3.44,3.44,0,0,1,1.18-2.65,4.7,4.7,0,0,1,6,0A3.45,3.45,0,0,1,404.12,281.19Zm-2.23,0a1.73,1.73,0,0,0-.54-1.29,1.94,1.94,0,0,0-1.43-.56,1.92,1.92,0,0,0-1.41.58,1.79,1.79,0,0,0,0,2.57,2,2,0,0,0,1.44.54,2,2,0,0,0,1.42-.57A1.74,1.74,0,0,0,401.89,281.18Z" transform="translate(-371.32 -259.6)"/><path class="cls-2" d="M413.19,281.19a3.44,3.44,0,0,1-1.18,2.64,4.73,4.73,0,0,1-6.05,0,3.43,3.43,0,0,1-1.18-2.63,3.47,3.47,0,0,1,1.18-2.65,4.7,4.7,0,0,1,6,0A3.46,3.46,0,0,1,413.19,281.19Zm-2.24,0a1.76,1.76,0,0,0-.53-1.29,2,2,0,0,0-1.44-.56,1.88,1.88,0,0,0-1.4.58,1.73,1.73,0,0,0-.56,1.28,1.75,1.75,0,0,0,.52,1.29A2,2,0,0,0,409,283a2,2,0,0,0,1.42-.57A1.74,1.74,0,0,0,411,281.18Z" transform="translate(-371.32 -259.6)"/><path class="cls-2" d="M421.75,281.14a3.51,3.51,0,0,1-1.11,2.58,3.92,3.92,0,0,1-2.76,1H416l-.87,0h-.87c-.12,0-.17,0-.17-.12,0-.37,0-.93.05-1.67s.05-1.3.05-1.67,0-1-.05-1.74-.05-1.36-.05-1.74c0-.07.05-.12.17-.13.28,0,.73,0,1.37,0,1.21,0,2,0,2.35.05a5.1,5.1,0,0,1,2.19.6,3.49,3.49,0,0,1,1.58,2.87Zm-2.25,0a1.78,1.78,0,0,0-.6-1.39,2.21,2.21,0,0,0-1.59-.57c-.6,0-.91.07-.91.21s0,.5,0,.9,0,.7,0,.9,0,.49,0,.88,0,.69,0,.89.32.22,1,.22a2.16,2.16,0,0,0,1.6-.59A2,2,0,0,0,419.5,281.14Z" transform="translate(-371.32 -259.6)"/><path class="cls-2" d="M399.73,293.54c0,.07,0,.12-.06.14l-.17,0c-.25,0-.61,0-1.06,0a11.09,11.09,0,0,1-1.14,0c-.12,0-.17-.07-.17-.15,0-.28,0-.7,0-1.26s.05-1,.05-1.26-.05-.22-.14-.24a13.19,13.19,0,0,0-1.49,0,13.41,13.41,0,0,0-1.51,0c-.09,0-.14.1-.14.24s0,.69,0,1.24,0,1,0,1.24a.17.17,0,0,1-.16.19c-.14,0-.52,0-1.17,0s-.91,0-1.06,0-.18-.08-.18-.17c0-.38,0-1,.06-1.73s.07-1.35.07-1.74,0-1-.06-1.85-.06-1.44-.06-1.85c0-.08,0-.12.13-.12l.57,0,.58,0,.6,0,.6,0a.09.09,0,0,1,.1.1c0,.27,0,.66-.07,1.19s-.07.93-.07,1.19,0,.2.12.22a13.93,13.93,0,0,0,1.59,0,13.77,13.77,0,0,0,1.53,0c.1,0,.15-.09.15-.22s0-.64,0-1.15,0-.9,0-1.16.05-.17.16-.17l.54,0,.56,0,.54,0,.56,0c.12,0,.18.05.18.13,0,.41,0,1-.06,1.84s-.06,1.44-.06,1.85,0,1,.06,1.74S399.73,293.16,399.73,293.54Z" transform="translate(-371.32 -259.6)"/><path class="cls-2" d="M408.25,291.1a3.25,3.25,0,0,1-.38,1.85q-.69.9-3.45.9a8.54,8.54,0,0,1-1.93-.17,1.85,1.85,0,0,1-1.39-1,3.52,3.52,0,0,1-.17-1.31c0-.14,0-.36,0-.64s0-.51,0-.65c0-.41,0-1-.07-1.85s-.06-1.43-.06-1.84a.12.12,0,0,1,.13-.13l1.14,0,1.14,0c.1,0,.15,0,.15.11,0,.47,0,1.17,0,2.1s-.05,1.64-.05,2.11a2.19,2.19,0,0,0,.2,1.12c.18.27.56.4,1.14.4.84,0,1.27-.35,1.27-1.06,0-.51,0-1.28-.05-2.31s0-1.79,0-2.31c0-.11.05-.16.15-.16l1.11,0,1.1,0c.12,0,.18.05.18.13,0,.41,0,1-.06,1.84s-.06,1.44-.06,1.85v.52C408.25,290.81,408.25,291,408.25,291.1Z" transform="translate(-371.32 -259.6)"/><path class="cls-2" d="M417.74,286.42c0,.4,0,1-.06,1.82s-.05,1.42-.05,1.82v3.5q0,.15-.18.15h-.9l-.48,0-.49,0a.38.38,0,0,1-.26-.17l-2-2.28c-.28-.33-.71-.82-1.29-1.46l-.1-.06a.13.13,0,0,0-.05.11c0,.41,0,1,0,1.85s0,1.44,0,1.85c0,.12-.05.19-.16.19h-2.14c-.12,0-.18-.06-.18-.17,0-.38,0-1,.06-1.73s.07-1.35.07-1.74,0-1-.06-1.82-.06-1.42-.06-1.83c0-.07.08-.11.24-.11s.54,0,.89,0l.48-.07a2.59,2.59,0,0,1,.49-.05c.05,0,.13.06.23.18l2.31,2.71c.2.25.52.6.93,1.08.11.11.19.16.27.16s.08-.14.08-.41,0-.94-.07-1.68-.07-1.31-.07-1.69c0-.13,0-.19.13-.19l1.12,0,1.12,0C417.7,286.25,417.74,286.31,417.74,286.42Z" transform="translate(-371.32 -259.6)"/><path class="cls-2" d="M424.92,287.88c0,.07-.05.11-.14.11l-1.86-.08c0,.89,0,1.52,0,1.87s0,1.05.06,1.89.06,1.46.06,1.88c0,.07,0,.11-.06.13l-.17,0c-.25,0-.61,0-1.09,0s-.9,0-1.12,0-.17-.08-.17-.17c0-.42,0-1,.06-1.88s.06-1.46.06-1.88,0-.89-.05-1.85c-.82.07-1.48.11-2,.11-.07,0-.1,0-.1-.05a2.39,2.39,0,0,1,.09-.41l.11-.45c0-.17,0-.34,0-.5s.08-.4.15-.4h.09a27.49,27.49,0,0,0,3,.11c.37,0,1.06,0,2.05-.1l.81-.05h.15a.2.2,0,0,1,0,.11c0,.09,0,.23,0,.4s0,.32,0,.39a2.31,2.31,0,0,0,0,.39C424.9,287.67,424.92,287.79,424.92,287.88Z" transform="translate(-371.32 -259.6)"/><path class="cls-2" d="M427.45,310.61c-14.08-8.5-28.29-7.91-42.61-.58-.49.25-1-.2-1-.86l.07-4.52a.94.94,0,0,1,.45-.84c14.73-7.73,29.35-8.36,43.82.65a1,1,0,0,1,.41.84l-.07,4.49C428.5,310.46,427.93,310.9,427.45,310.61Z" transform="translate(-371.32 -259.6)"/><text x="-371.32" y="-259.6"/><path class="cls-2" d="M427.86,301.27l-5-1.48c1.68-2.64,1.22-1.88,2.44-4l3.86,3.41a1,1,0,0,1,.27,1.07,1.81,1.81,0,0,1-.78.9A1,1,0,0,1,427.86,301.27Z" transform="translate(-371.32 -259.6)"/><path class="cls-2" d="M384.74,301.27l5-1.48c-1.67-2.64-1.22-1.88-2.43-4l-3.87,3.41a1,1,0,0,0-.27,1.07,1.86,1.86,0,0,0,.78.9A1,1,0,0,0,384.74,301.27Z" transform="translate(-371.32 -259.6)"/><circle class="cls-6" cx="15.96" cy="46.33" r="0.83"/><circle class="cls-6" cx="53.6" cy="46.33" r="0.83"/><path class="cls-7" d="M391.71,305s0,0,0,0l0,0-.26.12-.29.12s-.06,0-.06,0-.08-.2-.14-.35-.11-.28-.15-.36a.06.06,0,0,0-.06-.05l-.39.16-.38.19s0,0,0,.08.09.19.16.34.13.25.17.33,0,.05,0,.07l-.28.15-.27.11s-.06,0-.07,0-.12-.26-.21-.47-.16-.38-.21-.48l-.26-.49c-.12-.22-.21-.38-.26-.49s0,0,0-.05l.15-.07.15-.07.16-.08.15-.07s0,0,0,0a3.24,3.24,0,0,1,.14.33c.05.15.1.26.13.33s0,.05.06.05l.41-.18a3.16,3.16,0,0,0,.4-.19.06.06,0,0,0,0-.07l-.15-.32-.15-.31s0-.05,0-.06l.15-.06.15-.06.14-.07.15-.07a0,0,0,0,1,.06,0c.05.11.11.28.2.52s.15.4.19.51l.22.48C391.59,304.74,391.67,304.89,391.71,305Z" transform="translate(-371.32 -259.6)"/><path class="cls-7" d="M393.15,303.56c0,.1,0,.17,0,.21l-.32.16-.55.26a.26.26,0,0,0,.2.1.6.6,0,0,0,.22,0,.76.76,0,0,0,.26-.18l.1-.12a.58.58,0,0,1,.17.11.55.55,0,0,1,.14.15.08.08,0,0,1,0,0,.87.87,0,0,1-.53.42.9.9,0,0,1-.68,0,.76.76,0,0,1-.47-.46.79.79,0,0,1,0-.64.84.84,0,0,1,.51-.46.81.81,0,0,1,.61,0A.72.72,0,0,1,393.15,303.56Zm-.6.12a.24.24,0,0,0-.13-.13.28.28,0,0,0-.2,0,.26.26,0,0,0-.14.15.25.25,0,0,0,0,.19s0,0,.06,0l.36-.17S392.56,303.69,392.55,303.68Z" transform="translate(-371.32 -259.6)"/><path class="cls-7" d="M395,303a2.94,2.94,0,0,0,.12.35,2.93,2.93,0,0,1,.12.34s0,.07,0,.08l-.45.16s-.05,0-.07-.08-.05-.08-.06-.08l0,0a.6.6,0,0,1-.33.3.68.68,0,0,1-.59-.06.79.79,0,0,1-.38-.44.83.83,0,0,1,0-.64.84.84,0,0,1,.51-.42.6.6,0,0,1,.46,0h0s0,0,0-.09,0-.08,0-.08a1.15,1.15,0,0,1,.25-.05l.25,0s0,0,0,0v0A4.29,4.29,0,0,0,395,303Zm-.52.18a.31.31,0,0,0-.16-.19.38.38,0,0,0-.26,0,.36.36,0,0,0-.2.16.33.33,0,0,0,0,.24.26.26,0,0,0,.16.18.31.31,0,0,0,.25,0,.36.36,0,0,0,.2-.16A.29.29,0,0,0,394.47,303.2Z" transform="translate(-371.32 -259.6)"/><path class="cls-7" d="M395.87,302.6c.08.27.14.49.18.64l0,.12c0,.05,0,.09,0,.12s0,0,0,0l-.26.08a1,1,0,0,1-.25.06.05.05,0,0,1,0,0l0-.06c0-.09-.06-.23-.11-.41s-.1-.32-.12-.41a5.36,5.36,0,0,1-.17-.58,3.25,3.25,0,0,0-.22-.57v0s0,0,0,0l.61-.18s.05,0,.05,0v0C395.68,301.86,395.78,302.26,395.87,302.6Z" transform="translate(-371.32 -259.6)"/><path class="cls-7" d="M397.4,302.71s0,.08,0,.14a1.13,1.13,0,0,0,0,.14.18.18,0,0,1,0,.06l-.05.05a1.09,1.09,0,0,1-.44.23c-.31.08-.49,0-.56-.22,0-.07,0-.17-.07-.31s-.05-.24-.07-.31a.08.08,0,0,0-.11,0h0s-.07,0-.07,0a.45.45,0,0,1,0-.08s0-.06,0-.08a.23.23,0,0,0,0-.09.41.41,0,0,0,0-.1s0,0,.1-.06.06,0,.06,0a1.86,1.86,0,0,0-.05-.19,1.68,1.68,0,0,1-.05-.19c0-.11,0-.18,0-.18l.13,0h.14l.27,0s.05,0,.05,0,0,.11,0,.19a.77.77,0,0,0,0,.2q0,.08.06.06l.18-.05.18-.05s0,0,0,0a.87.87,0,0,1,0,.1.75.75,0,0,0,0,.11.3.3,0,0,0,0,.11.65.65,0,0,1,0,.11s0,0,0,0l-.11,0-.11,0-.13,0s0,0,0,.08l0,.11a.3.3,0,0,1,0,.11.38.38,0,0,0,.08.17s.1,0,.19,0a.37.37,0,0,0,.11,0l.11-.05S397.39,302.69,397.4,302.71Z" transform="translate(-371.32 -259.6)"/><path class="cls-7" d="M399.09,301.64c.07.36.14.72.2,1.08,0,0,0,.06,0,.07l-.24.06-.25,0s-.06,0-.07-.05,0-.23-.08-.41-.06-.31-.08-.4-.1-.17-.23-.14a.22.22,0,0,0-.15.08c-.06.05-.08.09-.07.13l.08.39s0,.12.05.22a2,2,0,0,1,0,.23s0,.06,0,.07l-.28.07-.2,0s-.06,0-.07,0-.05-.2-.08-.37l-.09-.37c-.08-.33-.15-.61-.21-.83l-.06-.23a2,2,0,0,0-.08-.23l0,0,0,0,.15-.06.16,0,.31-.1s0,0,0,0,0,.08,0,.14a1.13,1.13,0,0,0,0,.14c0,.23.08.42.11.56s0,0,0,0l.08-.07a1,1,0,0,1,.16-.14.68.68,0,0,1,.25-.11.63.63,0,0,1,.39,0A.36.36,0,0,1,399.09,301.64Z" transform="translate(-371.32 -259.6)"/><path class="cls-7" d="M400.92,301.77c0,.08,0,.19.05.34s0,.27.06.34,0,0,0,.05l-.25.05a.87.87,0,0,1-.25,0h-.05a.12.12,0,0,1,0-.05c0-.07,0-.18-.05-.32a3,3,0,0,0-.05-.33,5.22,5.22,0,0,0-.14-.71v0s0,0,0,0h.3l.14,0,.15,0s0,0,.05,0v0A5,5,0,0,0,400.92,301.77Zm-.12-1.18c0,.19-.07.29-.3.33a.42.42,0,0,1-.25,0,.24.24,0,0,1-.13-.19.21.21,0,0,1,.07-.21.38.38,0,0,1,.23-.11.36.36,0,0,1,.25,0A.24.24,0,0,1,400.8,300.59Z" transform="translate(-371.32 -259.6)"/><path class="cls-7" d="M402.17,301.05s0,0,0,.05h-.1a.34.34,0,0,0-.16.06.15.15,0,0,0-.07.14.27.27,0,0,0,.1.13,1.13,1.13,0,0,1,.18.16.42.42,0,0,1,.12.25.52.52,0,0,1,0,.17.34.34,0,0,1-.08.16,1,1,0,0,1-.27.2.86.86,0,0,1-.31.12s-.08-.05-.17-.16a.64.64,0,0,1-.14-.19s0,0,0,0l.23-.07c.1,0,.14-.1.13-.17a.31.31,0,0,0-.11-.15l-.18-.15a.39.39,0,0,1-.11-.22.45.45,0,0,1,.2-.44.93.93,0,0,1,.49-.21.54.54,0,0,1,.15.16A1.13,1.13,0,0,1,402.17,301.05Z" transform="translate(-371.32 -259.6)"/><path class="cls-7" d="M405,301a1.8,1.8,0,0,1,0,.38,4.62,4.62,0,0,1-.34.59l-.26.37a2.33,2.33,0,0,1-.26.35,3.63,3.63,0,0,1-.5.05.13.13,0,0,1-.09,0l-.07-.15-.06-.1a.29.29,0,0,1,0-.11s0,0,0,0c.31,0,.46-.1.45-.24l-.25-.3a1.77,1.77,0,0,1-.29-.37,1.64,1.64,0,0,1,0-.32s0-.1,0-.18a1.16,1.16,0,0,1,0-.17s0,0,0,0h.53s0,0,0,0a.53.53,0,0,1,0,.14V301c0,.14,0,.23,0,.27a.82.82,0,0,0,.12.21c.07.1.12.15.15.14s.07-.05.13-.16a.7.7,0,0,0,.08-.2,1.6,1.6,0,0,0,0-.31.72.72,0,0,0,0-.13,1.05,1.05,0,0,1,0-.13s0,0,0,0l.26,0,.26,0a.07.07,0,0,1,.06,0A1.44,1.44,0,0,1,405,301Z" transform="translate(-371.32 -259.6)"/><path class="cls-7" d="M406.82,301.34a.76.76,0,0,1-.24.59.93.93,0,0,1-1.21,0,.76.76,0,0,1-.26-.56.85.85,0,0,1,.22-.61.82.82,0,0,1,.63-.24.85.85,0,0,1,.63.23A.71.71,0,0,1,406.82,301.34Zm-.55,0a.31.31,0,0,0-.09-.22.24.24,0,0,0-.21-.1.29.29,0,0,0-.22.1.32.32,0,0,0-.08.23.37.37,0,0,0,.08.22.29.29,0,0,0,.22.09.27.27,0,0,0,.22-.1A.33.33,0,0,0,406.27,301.34Z" transform="translate(-371.32 -259.6)"/><path class="cls-7" d="M408.81,300.76a3.23,3.23,0,0,1,0,.35c0,.15,0,.27,0,.35s0,.19,0,.34,0,.27,0,.35,0,0-.05.05h-.27l-.25,0s0,0,0,0V302c0-.05,0-.07,0-.08s0,0-.17.11a.86.86,0,0,1-.35.09.47.47,0,0,1-.52-.39,3.36,3.36,0,0,1,0-.52,2,2,0,0,1,.08-.57.07.07,0,0,1,.07-.06h.48s.06,0,.06.05v0a3.12,3.12,0,0,0-.05.44,2,2,0,0,0,0,.38.18.18,0,0,0,.21.18.37.37,0,0,0,.16,0,.2.2,0,0,0,.1-.13s0-.3,0-.8a.35.35,0,0,1,0-.06h.32l.25,0s.06,0,.06,0Z" transform="translate(-371.32 -259.6)"/><path class="cls-7" d="M410.19,301.33s0,.05-.08.05H410l-.1,0a.26.26,0,0,0-.19,0s-.06.08-.07.16,0,.11,0,.21,0,.16,0,.2v.14c0,.06,0,.11,0,.14s0,0-.06,0l-.24,0a1.42,1.42,0,0,1-.25,0s-.05,0-.05-.05a3.46,3.46,0,0,1,0-.38c0-.17,0-.3,0-.38a2.87,2.87,0,0,0,0-.62,0,0,0,0,1,0,0l0,0h.28l.29,0s0,0,0,.11,0,.1,0,.1,0,0,.15-.07a.63.63,0,0,1,.32-.06c.07,0,.1,0,.1.05s0,.07,0,.13a1.05,1.05,0,0,0,0,.13s0,.07,0,.12A.78.78,0,0,0,410.19,301.33Z" transform="translate(-371.32 -259.6)"/><path class="cls-7" d="M412.3,302.13a.5.5,0,0,1,0,.14c0,.06,0,.11,0,.14s0,0,0,0,0,0-.06,0a1,1,0,0,1-.48,0c-.32,0-.46-.18-.43-.41,0-.07,0-.17.05-.31a3,3,0,0,0,0-.32s0-.07-.07-.08h-.05s-.06,0-.06-.05a.45.45,0,0,0,0-.08.25.25,0,0,0,0-.08s0-.05,0-.1,0-.08,0-.1,0,0,.11,0,.07,0,.07,0a.61.61,0,0,0,0-.19c0-.14,0-.2,0-.2s0-.18.07-.18l.13,0,.13,0,.26.07s.05,0,0,0a.93.93,0,0,1,0,.19l0,.19c0,.06,0,.08,0,.09l.19,0,.18,0s0,0,0,0a.65.65,0,0,1,0,.11,1,1,0,0,0,0,.11s0,.06,0,.11a.65.65,0,0,0,0,.11s0,0,0,0l-.12,0-.11,0-.13,0s0,0,0,.06l0,.11c0,.06,0,.09,0,.12a.34.34,0,0,0,0,.18.21.21,0,0,0,.17.1h.23S412.31,302.1,412.3,302.13Z" transform="translate(-371.32 -259.6)"/><path class="cls-7" d="M413.68,301.84s0,.05-.09,0l-.09,0-.09,0a.19.19,0,0,0-.28.16c0,.05,0,.11,0,.21a1.06,1.06,0,0,0,0,.2.46.46,0,0,0,0,.14,1.23,1.23,0,0,1,0,.13s0,0-.06,0l-.24,0-.25-.05s-.05,0-.05-.06,0-.21.07-.38.05-.29.06-.37a2.29,2.29,0,0,0,0-.62,0,0,0,0,1,0,0l0,0h.56s0,0,0,.11,0,.1,0,.1,0,0,.15-.05a.64.64,0,0,1,.33,0c.07,0,.1,0,.09.06s0,.07,0,.13l0,.12s0,.07,0,.12S413.68,301.82,413.68,301.84Z" transform="translate(-371.32 -259.6)"/><path class="cls-7" d="M415.38,302.33c0,.11-.08.16-.15.16l-.35-.05-.6-.08a.22.22,0,0,0,.11.18.51.51,0,0,0,.21.1.82.82,0,0,0,.31,0l.14-.05a.5.5,0,0,1,.08.19.92.92,0,0,1,0,.2s0,0,0,0a.88.88,0,0,1-.66.06.93.93,0,0,1-.58-.35.75.75,0,0,1-.13-.64.8.8,0,0,1,1-.65.75.75,0,0,1,.5.34A.73.73,0,0,1,415.38,302.33Zm-.57-.23a.2.2,0,0,0,0-.18.23.23,0,0,0-.16-.11.21.21,0,0,0-.19,0,.28.28,0,0,0-.11.17.05.05,0,0,0,0,.05l.39.05S414.81,302.11,414.81,302.1Z" transform="translate(-371.32 -259.6)"/><path class="cls-7" d="M417.2,302.89l-.09.36a2.45,2.45,0,0,1-.09.35s0,0-.07,0l-.46-.12s0,0,0-.1,0-.09,0-.1l0,0a.59.59,0,0,1-.44.07.71.71,0,0,1-.46-.37.83.83,0,0,1-.07-.58.85.85,0,0,1,.35-.53.83.83,0,0,1,.66-.07.54.54,0,0,1,.37.28,0,0,0,0,0,0,0s0,0,0-.06.05-.07.07-.06a1.1,1.1,0,0,1,.23.1l.22.12s0,0,0,0l0,0A2.94,2.94,0,0,0,417.2,302.89Zm-.53-.14a.33.33,0,0,0,0-.24.34.34,0,0,0-.21-.15.31.31,0,0,0-.25,0,.31.31,0,0,0-.15.2.31.31,0,0,0,.24.38.31.31,0,0,0,.25,0A.32.32,0,0,0,416.67,302.75Z" transform="translate(-371.32 -259.6)"/><path class="cls-7" d="M418.64,302.82l0,0-.09,0a.29.29,0,0,0-.18,0,.17.17,0,0,0-.12.11.24.24,0,0,0,0,.16,1.53,1.53,0,0,1,.1.21.54.54,0,0,1,0,.28.6.6,0,0,1-.09.15.45.45,0,0,1-.14.11,1.14,1.14,0,0,1-.33.07.92.92,0,0,1-.34,0s0-.07-.09-.21a.63.63,0,0,1-.05-.23h0l.24,0c.11,0,.17,0,.19-.1a.28.28,0,0,0,0-.18l-.1-.21a.39.39,0,0,1,0-.26.46.46,0,0,1,.37-.31,1,1,0,0,1,.53,0,.72.72,0,0,1,.07.21A1.13,1.13,0,0,1,418.64,302.82Z" transform="translate(-371.32 -259.6)"/><path class="cls-7" d="M420.61,303.37a2.22,2.22,0,0,1-.14.32l-.14.33c0,.07-.06.18-.11.32s-.09.25-.12.32a.05.05,0,0,1-.06,0l-.26-.08-.23-.1a.05.05,0,0,1,0,0l0-.1s0-.07,0-.07l-.2,0a.75.75,0,0,1-.37,0,.47.47,0,0,1-.37-.53,1.94,1.94,0,0,1,.13-.5,2,2,0,0,1,.24-.52s.06,0,.09,0l.23.08.23.08s.05,0,0,.06l0,0a2.87,2.87,0,0,0-.18.4,2.84,2.84,0,0,0-.11.37.21.21,0,0,0,.15.24.36.36,0,0,0,.18,0,.19.19,0,0,0,.13-.09s.11-.29.28-.75l0-.06h.06l.25.09.24.1s.05,0,.05,0S420.62,303.35,420.61,303.37Z" transform="translate(-371.32 -259.6)"/><path class="cls-7" d="M421.78,304.34s0,.05-.1,0l-.08,0-.09-.05c-.09,0-.15,0-.2,0s-.08.05-.11.13a1.13,1.13,0,0,1-.08.19c0,.09-.06.15-.07.2a.59.59,0,0,0-.05.13.48.48,0,0,1-.05.12s0,0-.06,0a1.07,1.07,0,0,1-.24-.09l-.23-.1s0,0,0-.07l.14-.35.14-.36a1.79,1.79,0,0,0,.16-.6,0,0,0,0,1,0,0s0,0,0,0l.28.07.28.06s0,.05,0,.11,0,.1,0,.11,0,0,.17,0a.72.72,0,0,1,.33.05c.06,0,.09.05.08.07l-.07.12-.06.11-.05.11A.79.79,0,0,0,421.78,304.34Z" transform="translate(-371.32 -259.6)"/><path class="cls-7" d="M423.36,305.21c-.05.1-.11.13-.19.11l-.33-.12-.58-.21a.23.23,0,0,0,.07.2.55.55,0,0,0,.19.14.75.75,0,0,0,.31.06H423a.46.46,0,0,1,0,.2.49.49,0,0,1,0,.2s0,0,0,0a.84.84,0,0,1-.67-.09,1,1,0,0,1-.5-.47.74.74,0,0,1,0-.65.81.81,0,0,1,.45-.46.88.88,0,0,1,.69.05.82.82,0,0,1,.43.45A.73.73,0,0,1,423.36,305.21Zm-.51-.35a.21.21,0,0,0,0-.19.24.24,0,0,0-.13-.15.23.23,0,0,0-.2,0,.27.27,0,0,0-.14.14,0,0,0,0,0,0,.06,3,3,0,0,0,.37.14Z" transform="translate(-371.32 -259.6)"/><path class="cls-2" d="M380.59,299h-9.27l2.64-4.41-2.15-4.4h12.48a2,2,0,0,1,1.42.57,3.35,3.35,0,0,1,.74,2.26,1.71,1.71,0,0,1-.77,1.54A25.35,25.35,0,0,0,380.59,299Z" transform="translate(-371.32 -259.6)"/><circle class="cls-6" cx="7.57" cy="34.73" r="0.83"/><path class="cls-2" d="M432,299.57h9.28l-2.64-4.41,2.15-4.4H428.35a2,2,0,0,0-1.42.57,3.35,3.35,0,0,0-.75,2.26,1.7,1.7,0,0,0,.77,1.54A25.07,25.07,0,0,1,432,299.57Z" transform="translate(-371.32 -259.6)"/><circle class="cls-6" cx="62.43" cy="35.34" r="0.83"/><path class="cls-2" d="M414.15,274.8h0L412,273.55a.14.14,0,0,0-.15,0,.17.17,0,0,0-.1.12l-.12.77-9.29-1.53-1.2-1.66a.11.11,0,1,0-.17.13l1.06,1.48-1.08-.18-1.2-1.66a.11.11,0,1,0-.17.13l1.06,1.48-1.09-.17-1.19-1.66a.1.1,0,0,0-.15,0,.11.11,0,0,0,0,.15l1.16,1.61-1.61,1.16a.1.1,0,0,0,0,.15.09.09,0,0,0,.08,0,.08.08,0,0,0,.07,0l1.66-1.19,1.09.18-1.49,1.06a.11.11,0,0,0,0,.16.1.1,0,0,0,.09,0,.07.07,0,0,0,.06,0l1.66-1.19,1.09.18-1.49,1.06a.11.11,0,0,0,0,.15.11.11,0,0,0,.09,0l.06,0,1.66-1.19,9.29,1.52-.12.76a.17.17,0,0,0,.05.15.16.16,0,0,0,.11.05h0l2.46-.5a.16.16,0,0,0,.13-.13A.18.18,0,0,0,414.15,274.8Zm-2.49.58.27-1.6,2,1.15Z" transform="translate(-371.32 -259.6)"/><path class="cls-8" d="M408.88,274.8a2.71,2.71,0,0,1-3.6,1.23,2.67,2.67,0,0,1-1.59-3.49c.72-2,2-2.25,3.3-1.39a2.3,2.3,0,0,0,.67.32C409.31,272,410.11,272.77,408.88,274.8Z" transform="translate(-371.32 -259.6)"/><path class="cls-9" d="M405.81,273c-.68.59-.76.47-.9.43-.51-.19-.5-.25-.29-1,.1-.33.26-.73.89-.43S406.41,272.52,405.81,273Z" transform="translate(-371.32 -259.6)"/><path class="cls-1" d="M431.78,288.29A25.61,25.61,0,0,0,410,261.19a.23.23,0,0,0-.25.19.22.22,0,0,0,.18.25,25.21,25.21,0,0,1,21.63,26.66s0,.1.1.11a.11.11,0,0,0,.11-.11Z" transform="translate(-371.32 -259.6)"/></svg>