<svg id="Layer_1" data-name="Layer 1" xmlns="http://www.w3.org/2000/svg" viewBox="0 0 60 44.89"><defs><style>.cls-1{fill:#9d2422;}.cls-2{fill:#fff;}.cls-3,.cls-4{fill:#3caa49;}.cls-4,.cls-5{stroke:#fff;stroke-linecap:round;}.cls-4,.cls-5,.cls-6{stroke-miterlimit:10;}.cls-4{stroke-width:0.39px;}.cls-5{fill:none;}.cls-5,.cls-6{stroke-width:0.77px;}.cls-6,.cls-7{fill:#1d1d1b;}.cls-6{stroke:#1d1d1b;}.cls-8{fill:#9b2320;}.cls-9{fill:#d2818c;}</style></defs><path class="cls-1" d="M384.38,287.93a21.95,21.95,0,0,1,18.67-23.22.18.18,0,0,1,.21.16.2.2,0,0,1-.16.21,21.72,21.72,0,0,0-17.57,14.84,21.32,21.32,0,0,0-1,8,.11.11,0,0,1-.09.1.1.1,0,0,1-.1-.1Z" transform="translate(-376.32 -263.34)"/><path class="cls-1" d="M418.6,304.91c-6.73,4.36-15.93,4.35-22.87.44-.19-.12-.84-.5-1-.63l-.17-.1c-.05-.05-.13-.05-.13-.17a.08.08,0,0,1,0-.07c.11-.05.15,0,.21.05l.17.11c.19.13.8.48,1,.61a22.36,22.36,0,0,0,22,0,4.9,4.9,0,0,1,.71-.39.08.08,0,0,1,.11.06.1.1,0,0,1,0,.1Z" transform="translate(-376.32 -263.34)"/><path class="cls-2" d="M386.38,288.15c-.11-.12-.09-.33-.1-.48l0-.48a20.08,20.08,0,0,1,10.48-18.4,19.87,19.87,0,0,1,7.39-2.27.18.18,0,0,1,.2.16.18.18,0,0,1-.16.21,19.74,19.74,0,0,0-17.68,20.29l0,.48c0,.12.05.36,0,.48s-.07,0-.09,0Z" transform="translate(-376.32 -263.34)"/><path class="cls-2" d="M414,303.88a19.43,19.43,0,0,1-15.13.24l-.47-.2-.24-.11c-.09,0-.3-.12-.22-.23s.22,0,.3.05l.24.11.47.18a20.5,20.5,0,0,0,13.06.5,19.15,19.15,0,0,0,1.93-.67.07.07,0,0,1,.1,0,.09.09,0,0,1,0,.09Z" transform="translate(-376.32 -263.34)"/><path class="cls-2" d="M409.08,266.62a20,20,0,0,1,17,21.23,3.1,3.1,0,0,1-.16.95,0,0,0,0,1-.06,0,0,0,0,0,1,0,0,4.4,4.4,0,0,1,0-1c0-.31,0-.63,0-.95,0-.62,0-1.28-.06-1.9A19.74,19.74,0,0,0,409,267a.2.2,0,0,1-.16-.21.18.18,0,0,1,.21-.16Z" transform="translate(-376.32 -263.34)"/><path class="cls-2" d="M410.06,270.13a16.55,16.55,0,0,1,12.74,12.65A18.54,18.54,0,0,1,423,289s0,0-.06,0-.05,0,0-.05a17.12,17.12,0,0,0-.25-6.22A16.3,16.3,0,0,0,410,270.5a.19.19,0,0,1,.06-.37Z" transform="translate(-376.32 -263.34)"/><path class="cls-3" d="M404.55,263.35c3.47,1.1,4.12,5.26,3.13,8.34a.1.1,0,0,1-.13.07.12.12,0,0,1-.08-.14,8.89,8.89,0,0,0,.33-2.35c0-2.29-1-4.91-3.32-5.71a.11.11,0,0,1,.07-.21Z" transform="translate(-376.32 -263.34)"/><path class="cls-4" d="M405.36,266.66" transform="translate(-376.32 -263.34)"/><path class="cls-3" d="M407.07,270.41c-.56-1.31-1.15-2.86-1.65-4.2a1.11,1.11,0,0,1-.14-.63.11.11,0,0,1,.17-.06c.21.15.23.37.31.57l.22.6c.22.61.65,1.83.85,2.44.14.4.28.81.4,1.22a.09.09,0,0,1-.16.06Z" transform="translate(-376.32 -263.34)"/><path class="cls-3" d="M406.58,270.94c-.28-.41-.9-1.37-1.16-1.77l-.1-.15c-.1-.17-.29-.24-.23-.48s.39,0,.42.15l.51.94c.21.36.49.87.71,1.22a.09.09,0,1,1-.15.09Z" transform="translate(-376.32 -263.34)"/><path class="cls-2" d="M394.15,296.4c-2.41-1.5-3.22-3.47-3.66-6.16,0,0,.05-.05.06,0a9.75,9.75,0,0,0,2.28,4.89,13.27,13.27,0,0,0,1.36,1.22s0,.08,0,.06Z" transform="translate(-376.32 -263.34)"/><path class="cls-5" d="M393.42,275.71a16.82,16.82,0,0,1,10.27-5.64" transform="translate(-376.32 -263.34)"/><path class="cls-2" d="M389.86,291.29a3.49,3.49,0,0,1-.2-.7,15.7,15.7,0,0,1-.36-2.16,17.68,17.68,0,0,1,1.27-8.6.19.19,0,1,1,.34.15,16.38,16.38,0,0,0-1.53,8.44,17.18,17.18,0,0,0,.34,2.15,3.53,3.53,0,0,1,.14.72Z" transform="translate(-376.32 -263.34)"/><path class="cls-2" d="M418.5,296.1a5.44,5.44,0,0,0,3.13-5c0-.05.09-.06.09,0a4.89,4.89,0,0,1-1.75,4.37,4.69,4.69,0,0,1-1.43.76c-.06,0-.09-.06,0-.08Z" transform="translate(-376.32 -263.34)"/><path class="cls-2" d="M396.83,280.21s0,.05-.11.05q-.37,0-1.14-.06c-.52,0-.9-.06-1.16-.06a2.66,2.66,0,0,0-.56,0c-.13.05-.19.19-.19.42s.08.43.24.47l.31,0,1,0,1.05,0c.11,0,.16.25.16.76a3.23,3.23,0,0,1-.05.77.15.15,0,0,1-.14.08l-.32,0c-.36,0-.9,0-1.63,0h-.4c-.18,0-.26.09-.26.19,0,.41,0,.88.06,1.42s0,.69,0,.64-.11.12-.32.13H393a7.27,7.27,0,0,1-1.21-.06c-.1,0-.15-.06-.15-.13,0-.32,0-.81,0-1.45s0-1.13,0-1.45,0-.86-.06-1.44q-.09-1.34-.09-1.44v-.05c0-.07.05-.11.15-.11l1.13,0H394c.27,0,.67,0,1.21,0s.95-.05,1.22-.05.26.05.28.17,0,.31,0,.56c0,.07,0,.19.07.37A2.24,2.24,0,0,1,396.83,280.21Z" transform="translate(-376.32 -263.34)"/><path class="cls-2" d="M404.44,281.84a2.94,2.94,0,0,1-1,2.27,4.07,4.07,0,0,1-5.19,0,3,3,0,0,1,0-4.52,4,4,0,0,1,5.18,0A2.94,2.94,0,0,1,404.44,281.84Zm-1.92,0a1.48,1.48,0,0,0-.46-1.11,1.75,1.75,0,0,0-2.43,0,1.5,1.5,0,0,0-.48,1.09,1.48,1.48,0,0,0,.45,1.11,1.82,1.82,0,0,0,2.45,0A1.49,1.49,0,0,0,402.52,281.84Z" transform="translate(-376.32 -263.34)"/><path class="cls-2" d="M412.2,281.84a2.93,2.93,0,0,1-1,2.27,4.07,4.07,0,0,1-5.19,0,3,3,0,0,1,0-4.52,4,4,0,0,1,5.18,0A2.93,2.93,0,0,1,412.2,281.84Zm-1.91,0a1.48,1.48,0,0,0-.46-1.11,1.67,1.67,0,0,0-1.23-.48,1.64,1.64,0,0,0-1.2.5,1.5,1.5,0,0,0-.48,1.09,1.48,1.48,0,0,0,.45,1.11,1.82,1.82,0,0,0,2.45,0A1.49,1.49,0,0,0,410.29,281.84Z" transform="translate(-376.32 -263.34)"/><path class="cls-2" d="M419.55,281.81a3,3,0,0,1-1,2.21,3.35,3.35,0,0,1-2.37.88h-1.61l-.74,0h-.75c-.09,0-.14,0-.14-.1,0-.32,0-.79,0-1.43s0-1.12,0-1.44,0-.83,0-1.49,0-1.16,0-1.49c0-.06,0-.1.14-.11s.64,0,1.18,0c1,0,1.71,0,2,0a4.29,4.29,0,0,1,1.87.52,2.71,2.71,0,0,1,1,1.09A2.83,2.83,0,0,1,419.55,281.81Zm-1.94,0a1.55,1.55,0,0,0-.51-1.2,1.9,1.9,0,0,0-1.36-.48q-.78,0-.78.18c0,.17,0,.42,0,.76s0,.6,0,.77,0,.42,0,.76,0,.59,0,.76.27.19.81.19a1.86,1.86,0,0,0,1.37-.5A1.65,1.65,0,0,0,417.61,281.81Z" transform="translate(-376.32 -263.34)"/><path class="cls-2" d="M400.67,292.43c0,.07,0,.11-.05.12a.32.32,0,0,1-.15,0c-.21,0-.52,0-.91,0a8.38,8.38,0,0,1-1,0c-.09,0-.14-.06-.14-.12,0-.24,0-.6,0-1.08s0-.84,0-1.08,0-.19-.12-.21-.55,0-1.28,0-1.17,0-1.29,0-.12.09-.12.21,0,.59,0,1.06,0,.83,0,1.06a.14.14,0,0,1-.14.16,9,9,0,0,1-1,0,8.17,8.17,0,0,1-.91,0c-.1,0-.15-.06-.15-.14,0-.32,0-.82.05-1.48s.06-1.16.06-1.49,0-.88-.06-1.59-.05-1.23-.05-1.58c0-.07,0-.1.11-.1h.5l.49,0,.52,0h.51c.06,0,.09,0,.09.08q0,.35-.06,1t-.06,1c0,.11,0,.17.1.19a22.29,22.29,0,0,0,2.67,0c.09,0,.13-.08.13-.19s0-.54,0-1,0-.77,0-1,0-.14.13-.14h.47l.47,0,.47,0h.48c.1,0,.15,0,.15.11,0,.35,0,.87-.05,1.58s-.05,1.23-.05,1.58,0,.83.05,1.49S400.67,292.11,400.67,292.43Z" transform="translate(-376.32 -263.34)"/><path class="cls-2" d="M408,290.34a2.72,2.72,0,0,1-.32,1.58c-.39.52-1.38.78-3,.78a7.57,7.57,0,0,1-1.65-.14,1.65,1.65,0,0,1-1.2-.87,3.18,3.18,0,0,1-.14-1.12c0-.13,0-.31,0-.56s0-.43,0-.55c0-.35,0-.88-.06-1.58s-.06-1.23-.06-1.58a.1.1,0,0,1,.11-.11l1,0c.43,0,.76,0,1,0s.13,0,.13.1c0,.4,0,1-.05,1.8s0,1.4,0,1.8a1.94,1.94,0,0,0,.17,1,1.12,1.12,0,0,0,1,.34c.72,0,1.09-.3,1.09-.91,0-.44,0-1.1,0-2s0-1.54,0-2a.12.12,0,0,1,.13-.14c.21,0,.53,0,1,0l.94,0c.1,0,.15,0,.15.11,0,.35,0,.87-.05,1.58s-.05,1.23-.05,1.58c0,.1,0,.24,0,.44Z" transform="translate(-376.32 -263.34)"/><path class="cls-2" d="M416.11,286.33c0,.35,0,.86-.05,1.56s-.05,1.21-.05,1.56v3q0,.12-.15.12h-.77a3.75,3.75,0,0,1-.42,0h-.41a.37.37,0,0,1-.23-.15c-.25-.3-.82-1-1.71-2l-1.12-1.25a.12.12,0,0,0-.08-.05.11.11,0,0,0,0,.1c0,.35,0,.88,0,1.58s0,1.23,0,1.58c0,.11,0,.16-.14.16h-1.84c-.1,0-.15,0-.15-.14,0-.32,0-.82.05-1.48s.06-1.16.06-1.49,0-.87-.05-1.57-.05-1.21-.05-1.56c0-.06.07-.1.21-.1l.75,0,.42-.06a2.61,2.61,0,0,1,.42,0s.11,0,.2.15l2,2.33.8.92a.39.39,0,0,0,.23.14c.05,0,.07-.12.07-.36s0-.79-.06-1.44-.06-1.12-.06-1.44c0-.11,0-.17.11-.17s.53,0,1,0l1,0C416.08,286.19,416.11,286.24,416.11,286.33Z" transform="translate(-376.32 -263.34)"/><path class="cls-2" d="M422.26,287.58q0,.09-.12.09l-1.59-.07c0,.77,0,1.31,0,1.61s0,.9.05,1.62.05,1.25.05,1.61c0,.06,0,.1-.05.11a.32.32,0,0,1-.15,0,7.31,7.31,0,0,1-.93,0,7.05,7.05,0,0,1-1,0c-.1,0-.15-.06-.15-.14,0-.35,0-.89.05-1.61s.06-1.25.06-1.61,0-.76-.05-1.58c-.7.06-1.27.09-1.69.09-.05,0-.08,0-.08-.05a2.12,2.12,0,0,1,.07-.35c.06-.21.09-.34.1-.39l0-.42c0-.23.07-.34.13-.34h.08c.57.06,1.41.1,2.53.1.32,0,.91,0,1.76-.09l.7-.05h.12a.14.14,0,0,1,0,.09c0,.09,0,.2,0,.34s0,.28,0,.35a2.79,2.79,0,0,0,0,.33A1.77,1.77,0,0,1,422.26,287.58Z" transform="translate(-376.32 -263.34)"/><path class="cls-2" d="M424.43,307.06c-12.07-7.28-24.25-6.78-36.52-.49-.42.21-.88-.18-.87-.74l.06-3.88a.82.82,0,0,1,.39-.72c12.62-6.62,25.15-7.16,37.56.56a.85.85,0,0,1,.35.72l-.06,3.85C425.33,306.94,424.84,307.31,424.43,307.06Z" transform="translate(-376.32 -263.34)"/><text x="-376.32" y="-263.34"/><path class="cls-2" d="M424.79,299.06l-4.29-1.27c1.44-2.26,1.05-1.61,2.09-3.4l3.31,2.92a.81.81,0,0,1,.23.91,1.55,1.55,0,0,1-.67.78A.87.87,0,0,1,424.79,299.06Z" transform="translate(-376.32 -263.34)"/><path class="cls-2" d="M387.82,299.06l4.29-1.27c-1.44-2.26-1.05-1.61-2.09-3.4l-3.31,2.92a.81.81,0,0,0-.23.91,1.55,1.55,0,0,0,.67.78A.87.87,0,0,0,387.82,299.06Z" transform="translate(-376.32 -263.34)"/><circle class="cls-6" cx="13.68" cy="39.71" r="0.71"/><circle class="cls-6" cx="45.94" cy="39.71" r="0.71"/><path class="cls-7" d="M393.8,302.26v0l0,0-.22.1-.25.1s-.05,0-.05,0a3,3,0,0,1-.12-.3,3,3,0,0,1-.12-.3s0,0-.06,0a2.28,2.28,0,0,0-.33.13l-.33.16s0,0,0,.07l.14.29.14.29a0,0,0,0,1,0,.06l-.25.12-.23.1a0,0,0,0,1-.05,0c0-.09-.11-.22-.19-.4a3,3,0,0,0-.18-.41,4.56,4.56,0,0,0-.22-.42c-.1-.19-.18-.33-.22-.42s0,0,0-.05l.13-.05.14-.06.13-.07.13-.07s0,0,0,0l.11.29c.05.13.09.22.12.28s0,0,0,0a1.86,1.86,0,0,0,.36-.15l.34-.16a.06.06,0,0,0,0-.07l-.13-.27-.13-.27s0,0,0-.05l.12-.05.13,0,.13-.06.12-.06s.05,0,.05,0,.1.24.17.44.13.35.17.44.1.23.19.41S393.76,302.16,393.8,302.26Z" transform="translate(-376.32 -263.34)"/><path class="cls-7" d="M395,301q0,.14,0,.18l-.28.14-.47.22a.2.2,0,0,0,.17.08.32.32,0,0,0,.19,0,.65.65,0,0,0,.23-.15l.08-.1a.36.36,0,0,1,.14.09c.08.06.12.11.12.13s0,0,0,0a.74.74,0,0,1-.45.36.84.84,0,0,1-.58,0,.67.67,0,0,1-.4-.39.68.68,0,0,1,0-.56.7.7,0,0,1,.43-.39.65.65,0,0,1,.53,0A.59.59,0,0,1,395,301Zm-.51.11a.22.22,0,0,0-.4,0,.25.25,0,0,0,0,.17,0,0,0,0,0,.05,0l.31-.16A.07.07,0,0,0,394.52,301.13Z" transform="translate(-376.32 -263.34)"/><path class="cls-7" d="M396.61,300.56c0,.07.05.17.1.3s.09.22.11.29a.05.05,0,0,1,0,.07l-.39.13s0,0-.06-.06,0-.07,0-.07l0,0a.5.5,0,0,1-.28.26.61.61,0,0,1-.51-.05.67.67,0,0,1-.32-.38.72.72,0,0,1,0-.54.7.7,0,0,1,.44-.36.46.46,0,0,1,.4,0h0s0,0,0-.08,0-.07,0-.07l.21,0,.22,0,0,0v0A2.6,2.6,0,0,0,396.61,300.56Zm-.45.15a.26.26,0,0,0-.13-.16.33.33,0,0,0-.22,0,.3.3,0,0,0-.17.14.25.25,0,0,0,0,.21.28.28,0,0,0,.54-.18Z" transform="translate(-376.32 -263.34)"/><path class="cls-7" d="M397.36,300.19c.07.24.12.43.16.55a.53.53,0,0,1,0,.11l0,.1s0,0,0,0a1.2,1.2,0,0,1-.22.08l-.21.05a0,0,0,0,1-.05,0l0,0c0-.08-.05-.2-.1-.35a2.83,2.83,0,0,0-.1-.35c-.1-.37-.15-.54-.14-.5a2.64,2.64,0,0,0-.19-.49v0s0,0,0,0l.52-.15a0,0,0,0,1,.05,0v0C397.2,299.56,397.28,299.9,397.36,300.19Z" transform="translate(-376.32 -263.34)"/><path class="cls-7" d="M398.67,300.29a.37.37,0,0,1,0,.12,1.23,1.23,0,0,0,0,.13,0,0,0,0,1,0,0,.12.12,0,0,1,0,0,.93.93,0,0,1-.37.19c-.27.07-.43,0-.48-.19s0-.14-.06-.26-.05-.21-.07-.26a.05.05,0,0,0-.08,0h0s-.06,0-.06,0a.64.64,0,0,1,0-.07.35.35,0,0,0,0-.06.46.46,0,0,1,0-.09l0-.08s0,0,.09-.05.05,0,.05,0,0-.09,0-.16a1.5,1.5,0,0,0,0-.17c0-.1,0-.15,0-.16h.24l.23,0s0,0,0,0a1.16,1.16,0,0,1,0,.16l0,.17s0,.06,0,0l.16,0,.15,0s0,0,0,0,0,.05,0,.09a.87.87,0,0,0,0,.1.51.51,0,0,0,0,.09.51.51,0,0,1,0,.09s0,0,0,0l-.1,0-.09,0-.11,0s0,0,0,.06l0,.1a.51.51,0,0,1,0,.09.35.35,0,0,0,.07.15.2.2,0,0,0,.16,0l.1,0,.09,0S398.67,300.27,398.67,300.29Z" transform="translate(-376.32 -263.34)"/><path class="cls-7" d="M400.12,299.38l.18.92s0,.06,0,.06l-.21.05-.21,0s-.05,0-.06-.05,0-.19-.07-.34-.05-.28-.06-.35a.15.15,0,0,0-.21-.12.25.25,0,0,0-.12.07.16.16,0,0,0-.07.11l.07.33c0,.05,0,.11.05.2s0,.15,0,.19a0,0,0,0,1,0,.06l-.24.06-.17,0a.05.05,0,0,1-.06,0c0-.07,0-.17-.07-.31s-.06-.25-.07-.32l-.18-.72a1.33,1.33,0,0,1-.05-.19,2.07,2.07,0,0,0-.08-.2s0,0,0,0,0,0,0,0l.13-.05.14,0,.26-.09s0,0,0,0a.74.74,0,0,0,0,.12.29.29,0,0,0,0,.12,4.43,4.43,0,0,0,.09.47s0,0,0,0l.06-.07.15-.12.21-.09a.61.61,0,0,1,.33,0A.32.32,0,0,1,400.12,299.38Z" transform="translate(-376.32 -263.34)"/><path class="cls-7" d="M401.69,299.49c0,.06,0,.16.05.29s0,.23,0,.29,0,0,0,0a.94.94,0,0,1-.21,0l-.22,0h0s0,0,0,0,0-.16,0-.29,0-.21,0-.28a4,4,0,0,0-.13-.6v0s0,0,0,0h.13l.12,0,.13,0,.13,0s0,0,0,0v0A5,5,0,0,0,401.69,299.49Zm-.1-1c0,.15-.07.25-.26.27a.3.3,0,0,1-.21,0,.21.21,0,0,1-.12-.17.19.19,0,0,1,.07-.18.39.39,0,0,1,.19-.1.3.3,0,0,1,.21,0A.21.21,0,0,1,401.59,298.48Z" transform="translate(-376.32 -263.34)"/><path class="cls-7" d="M402.76,298.87a0,0,0,0,1,0,0h-.08a.46.46,0,0,0-.14,0,.18.18,0,0,0-.06.13.27.27,0,0,0,.09.11l.16.13a.47.47,0,0,1,.09.22.34.34,0,0,1,0,.14.37.37,0,0,1-.07.14,1.06,1.06,0,0,1-.23.17.6.6,0,0,1-.27.1s-.07,0-.14-.13a1,1,0,0,1-.13-.17h0l.19-.07c.08,0,.12-.08.11-.14s0-.08-.09-.12l-.15-.13a.35.35,0,0,1-.1-.2.41.41,0,0,1,.17-.37.87.87,0,0,1,.42-.18s.06,0,.13.13A.85.85,0,0,1,402.76,298.87Z" transform="translate(-376.32 -263.34)"/><path class="cls-7" d="M405.17,298.84a1.3,1.3,0,0,1,0,.32,4,4,0,0,1-.29.51l-.22.32a2.42,2.42,0,0,1-.22.29,1.88,1.88,0,0,1-.43.05h-.08a.81.81,0,0,1-.06-.13l-.05-.09a.2.2,0,0,1,0-.09s0,0,0,0c.26,0,.39-.08.38-.2a2,2,0,0,0-.21-.26,1.83,1.83,0,0,1-.25-.31,1.69,1.69,0,0,1,0-.28s0-.09,0-.15,0-.12,0-.15,0,0,0,0h.45a0,0,0,0,1,0,0v.23c0,.11,0,.19,0,.23a.68.68,0,0,0,.1.17c.06.09.11.13.13.13s.06-.05.11-.14a.44.44,0,0,0,.07-.17,1.22,1.22,0,0,0,0-.27.54.54,0,0,0,0-.11.49.49,0,0,1,0-.11,0,0,0,0,1,0,0h.22l.23,0a.05.05,0,0,1,.05,0A2.08,2.08,0,0,1,405.17,298.84Z" transform="translate(-376.32 -263.34)"/><path class="cls-7" d="M406.75,299.12a.65.65,0,0,1-.2.5.74.74,0,0,1-.53.2.77.77,0,0,1-.52-.18.67.67,0,0,1-.21-.49.68.68,0,0,1,.18-.52.78.78,0,0,1,.54-.21.77.77,0,0,1,.54.2A.65.65,0,0,1,406.75,299.12Zm-.47,0a.33.33,0,0,0-.08-.19.21.21,0,0,0-.18-.08.26.26,0,0,0-.19.08.28.28,0,0,0-.07.19.29.29,0,0,0,.07.19.24.24,0,0,0,.19.08.22.22,0,0,0,.19-.08A.32.32,0,0,0,406.28,299.12Z" transform="translate(-376.32 -263.34)"/><path class="cls-7" d="M408.46,298.62q0,.09,0,.3a2.13,2.13,0,0,0,0,.3,2.37,2.37,0,0,0,0,.3c0,.13,0,.22,0,.29s0,0,0,0h-.23l-.22,0a0,0,0,0,1,0,0v-.08s0-.07,0-.07l-.15.09a.61.61,0,0,1-.3.08.4.4,0,0,1-.44-.34,2.36,2.36,0,0,1,0-.44,2,2,0,0,1,.07-.49.06.06,0,0,1,.06-.05h.41a0,0,0,0,1,.05,0v0a2.33,2.33,0,0,0,0,.37c0,.16,0,.27,0,.33a.19.19,0,0,0,.19.16.3.3,0,0,0,.14-.05.14.14,0,0,0,.08-.11s0-.26,0-.68v-.06H408l.22,0h.21s.05,0,.05,0S408.46,298.6,408.46,298.62Z" transform="translate(-376.32 -263.34)"/><path class="cls-7" d="M409.64,299.11a.05.05,0,0,1-.07,0h-.16a.27.27,0,0,0-.17,0,.17.17,0,0,0-.05.14s0,.1,0,.18,0,.14,0,.17a.57.57,0,0,1,0,.12v.12s0,0,0,0h-.21l-.21,0s-.05,0-.05-.05,0-.18,0-.33,0-.25,0-.32a1.85,1.85,0,0,0,0-.54,0,0,0,0,1,0,0s0,0,0,0h.24l.24,0s0,0,0,.09,0,.09,0,.09l.13-.06a.54.54,0,0,1,.27-.05c.06,0,.09,0,.08,0a.52.52,0,0,1,0,.11.75.75,0,0,1,0,.11.45.45,0,0,1,0,.11Z" transform="translate(-376.32 -263.34)"/><path class="cls-7" d="M411.45,299.79a1,1,0,0,0,0,.12.49.49,0,0,0,0,.12s0,0,0,.05,0,0-.05,0a.84.84,0,0,1-.42,0c-.27,0-.39-.15-.37-.35s0-.15.05-.27,0-.21,0-.27,0-.06-.07-.07h0s-.05,0-.05-.05l0-.06s0-.05,0-.07v-.09a.25.25,0,0,0,0-.08s0,0,.1,0,0,0,.06,0a1.16,1.16,0,0,0,0-.16c0-.12,0-.17,0-.17s0-.15.06-.15l.11,0,.11,0,.23.05,0,0a.61.61,0,0,1,0,.16.75.75,0,0,0,0,.17s0,.07,0,.07l.15,0,.16,0s0,0,0,0a.44.44,0,0,1,0,.1.51.51,0,0,0,0,.09.64.64,0,0,0,0,.09s0,.08,0,.1,0,0-.05,0l-.09,0h-.1l-.11,0s0,0,0,.06v.09a.56.56,0,0,1,0,.1.37.37,0,0,0,0,.16.18.18,0,0,0,.14.08h.2A0,0,0,0,1,411.45,299.79Z" transform="translate(-376.32 -263.34)"/><path class="cls-7" d="M412.63,299.54s0,0-.08,0l-.07,0h-.08a.24.24,0,0,0-.17,0,.18.18,0,0,0-.07.13,1.64,1.64,0,0,0,0,.18,1.64,1.64,0,0,1,0,.18s0,.06,0,.11a1,1,0,0,1,0,.12s0,0-.05,0l-.21,0-.21,0s-.05,0,0-.05,0-.18.05-.32.05-.25.06-.32a2,2,0,0,0,0-.54v0s0,0,0,0h.48s0,0,0,.09,0,.09,0,.09l.13-.05a.59.59,0,0,1,.29,0c.05,0,.08,0,.07.05a.36.36,0,0,1,0,.11.41.41,0,0,1,0,.1.65.65,0,0,1,0,.11A.77.77,0,0,1,412.63,299.54Z" transform="translate(-376.32 -263.34)"/><path class="cls-7" d="M414.08,300c0,.09-.06.13-.13.13l-.3,0-.51-.07a.2.2,0,0,0,.1.16.45.45,0,0,0,.17.08.5.5,0,0,0,.27,0l.12,0a.5.5,0,0,1,.07.16.33.33,0,0,1,0,.17l0,0a.72.72,0,0,1-.57,0,.79.79,0,0,1-.5-.3.6.6,0,0,1-.11-.54.66.66,0,0,1,.29-.47.69.69,0,0,1,.57-.09.66.66,0,0,1,.43.29A.62.62,0,0,1,414.08,300Zm-.48-.2a.23.23,0,0,0,0-.16.19.19,0,0,0-.14-.09.16.16,0,0,0-.16,0,.19.19,0,0,0-.09.14s0,0,0,0a2,2,0,0,0,.34,0S413.6,299.78,413.6,299.77Z" transform="translate(-376.32 -263.34)"/><path class="cls-7" d="M415.64,300.45c0,.06,0,.17-.07.3a2.83,2.83,0,0,1-.08.3s0,.05-.06.05l-.4-.1a.11.11,0,0,1,0-.09c0-.05,0-.08,0-.08h0a.5.5,0,0,1-.37.06.61.61,0,0,1-.4-.32.66.66,0,0,1,0-.5.73.73,0,0,1,.3-.45.74.74,0,0,1,.56-.06.46.46,0,0,1,.32.25h0s0,0,0-.05,0-.06.06,0a.77.77,0,0,1,.19.08l.2.11v0A3.13,3.13,0,0,0,415.64,300.45Zm-.45-.12a.25.25,0,0,0,0-.21A.26.26,0,0,0,415,300a.32.32,0,0,0-.22,0,.25.25,0,0,0-.09.37.29.29,0,0,0,.38.11A.23.23,0,0,0,415.19,300.33Z" transform="translate(-376.32 -263.34)"/><path class="cls-7" d="M416.88,300.39l0,0-.07,0a.27.27,0,0,0-.15,0,.13.13,0,0,0-.11.09.23.23,0,0,0,0,.14.56.56,0,0,1,.08.18.39.39,0,0,1,0,.24.46.46,0,0,1-.08.13.24.24,0,0,1-.12.09.82.82,0,0,1-.28.07.86.86,0,0,1-.29,0s0-.06-.08-.18a.57.57,0,0,1,0-.2h0l.2,0c.09,0,.15,0,.16-.09a.18.18,0,0,0,0-.15.6.6,0,0,0-.09-.18.34.34,0,0,1,0-.22.43.43,0,0,1,.32-.27.77.77,0,0,1,.45,0s0,.07.07.18A1,1,0,0,1,416.88,300.39Z" transform="translate(-376.32 -263.34)"/><path class="cls-7" d="M418.57,300.86c0,.06-.06.15-.12.28l-.12.27c0,.07-.06.16-.1.28a2,2,0,0,1-.1.28,0,0,0,0,1-.05,0l-.22-.07-.2-.09s0,0,0,0l0-.08s0-.06,0-.07-.05,0-.17,0a.56.56,0,0,1-.32,0,.4.4,0,0,1-.32-.45,2.08,2.08,0,0,1,.11-.43,1.92,1.92,0,0,1,.21-.45.07.07,0,0,1,.08,0l.2.07.19.07a.05.05,0,0,1,0,.05l0,0a2.07,2.07,0,0,0-.15.34,1.68,1.68,0,0,0-.1.31.19.19,0,0,0,.13.21h.15a.17.17,0,0,0,.11-.08s.1-.25.25-.64c0,0,0-.05,0-.05s0,0,.06,0l.2.08.21.08s0,0,0,0Z" transform="translate(-376.32 -263.34)"/><path class="cls-7" d="M419.57,301.69a.05.05,0,0,1-.08,0l-.08,0-.07,0a.29.29,0,0,0-.17,0,.17.17,0,0,0-.09.11l-.07.17-.07.17,0,.11a.66.66,0,0,1,0,.11s0,0-.06,0l-.19-.07-.21-.09s0,0,0-.06a3,3,0,0,1,.12-.31c.05-.13.1-.23.12-.3a1.79,1.79,0,0,0,.14-.51v0h0l.24.06.24,0s0,0,0,.1,0,.08,0,.09,0,0,.15,0a.64.64,0,0,1,.28,0c.05,0,.07,0,.07.07l-.06.1-.05.09a1,1,0,0,0,0,.1Z" transform="translate(-376.32 -263.34)"/><path class="cls-7" d="M420.92,302.43c0,.09-.09.12-.15.1l-.29-.1-.49-.18a.17.17,0,0,0,.05.17.48.48,0,0,0,.16.12.76.76,0,0,0,.27,0h.13a.38.38,0,0,1,0,.17.48.48,0,0,1,0,.18h0a.75.75,0,0,1-.57-.07.82.82,0,0,1-.43-.41.68.68,0,0,1,0-.56.74.74,0,0,1,.39-.39.76.76,0,0,1,.59,0,.71.71,0,0,1,.37.39A.56.56,0,0,1,420.92,302.43Zm-.43-.3a.22.22,0,0,0,0-.16.18.18,0,0,0-.12-.12.17.17,0,0,0-.17,0,.19.19,0,0,0-.11.12s0,0,0,0l.32.11Z" transform="translate(-376.32 -263.34)"/><path class="cls-2" d="M384.27,297.08h-7.95l2.26-3.78-1.84-3.77h10.7a1.72,1.72,0,0,1,1.21.48,2.88,2.88,0,0,1,.64,1.94,1.45,1.45,0,0,1-.66,1.32A21.39,21.39,0,0,0,384.27,297.08Z" transform="translate(-376.32 -263.34)"/><circle class="cls-6" cx="6.49" cy="29.77" r="0.71"/><path class="cls-2" d="M428.37,297.6h7.95l-2.26-3.78,1.84-3.77H425.2a1.71,1.71,0,0,0-1.22.49,2.82,2.82,0,0,0-.63,1.93,1.42,1.42,0,0,0,.66,1.32A22,22,0,0,1,428.37,297.6Z" transform="translate(-376.32 -263.34)"/><circle class="cls-6" cx="53.51" cy="30.3" r="0.71"/><path class="cls-2" d="M413,276.37h0l-1.87-1.07a.15.15,0,0,0-.13,0,.15.15,0,0,0-.08.11l-.11.66-8-1.31-1-1.42a.09.09,0,0,0-.13,0,.09.09,0,0,0,0,.13l.91,1.27-.93-.15-1-1.43a.09.09,0,0,0-.13,0,.09.09,0,0,0,0,.13l.92,1.27-.94-.15-1-1.42a.09.09,0,0,0-.13,0,.09.09,0,0,0,0,.13l1,1.37-1.38,1a.09.09,0,0,0,0,.13.11.11,0,0,0,.08,0H399l1.42-1,.94.16-1.28.91a.09.09,0,0,0,0,.13.09.09,0,0,0,.08,0l.05,0,1.43-1,.93.15-1.27.92a.09.09,0,0,0,0,.13.08.08,0,0,0,.07,0l.06,0,1.42-1,8,1.3-.11.66a.15.15,0,0,0,.05.12.12.12,0,0,0,.1,0h0l2.1-.42a.15.15,0,0,0,0-.27Zm-2.13.5.22-1.38,1.72,1Z" transform="translate(-376.32 -263.34)"/><path class="cls-8" d="M408.51,276.37a2.31,2.31,0,0,1-3.08,1.05,2.28,2.28,0,0,1-1.36-3c.61-1.75,1.72-1.93,2.82-1.19a2.07,2.07,0,0,0,.58.28C408.88,273.93,409.57,274.63,408.51,276.37Z" transform="translate(-376.32 -263.34)"/><path class="cls-9" d="M405.88,274.86c-.58.51-.65.41-.77.37-.43-.16-.43-.21-.25-.82.09-.28.23-.62.77-.36S406.39,274.41,405.88,274.86Z" transform="translate(-376.32 -263.34)"/><path class="cls-1" d="M428.14,287.93a21.93,21.93,0,0,0-18.66-23.22.18.18,0,0,0-.21.16.18.18,0,0,0,.16.21A21.61,21.61,0,0,1,428,287.93a.1.1,0,0,0,.08.1.09.09,0,0,0,.1-.1Z" transform="translate(-376.32 -263.34)"/></svg>