<svg id="visual" viewBox="0 0 900 600" width="900" height="600" xmlns="http://www.w3.org/2000/svg" xmlns:xlink="http://www.w3.org/1999/xlink" version="1.1"><path d="M0 458L16.7 452.3C33.3 446.7 66.7 435.3 100 430.2C133.3 425 166.7 426 200 428.3C233.3 430.7 266.7 434.3 300 443.8C333.3 453.3 366.7 468.7 400 471.3C433.3 474 466.7 464 500 457C533.3 450 566.7 446 600 438.2C633.3 430.3 666.7 418.7 700 416.7C733.3 414.7 766.7 422.3 800 433.2C833.3 444 866.7 458 883.3 465L900 472L900 601L883.3 601C866.7 601 833.3 601 800 601C766.7 601 733.3 601 700 601C666.7 601 633.3 601 600 601C566.7 601 533.3 601 500 601C466.7 601 433.3 601 400 601C366.7 601 333.3 601 300 601C266.7 601 233.3 601 200 601C166.7 601 133.3 601 100 601C66.7 601 33.3 601 16.7 601L0 601Z" fill="#f6574c"></path><path d="M0 508L16.7 509C33.3 510 66.7 512 100 513.5C133.3 515 166.7 516 200 515.8C233.3 515.7 266.7 514.3 300 516.3C333.3 518.3 366.7 523.7 400 520.3C433.3 517 466.7 505 500 501.8C533.3 498.7 566.7 504.3 600 508.3C633.3 512.3 666.7 514.7 700 514.3C733.3 514 766.7 511 800 505.5C833.3 500 866.7 492 883.3 488L900 484L900 601L883.3 601C866.7 601 833.3 601 800 601C766.7 601 733.3 601 700 601C666.7 601 633.3 601 600 601C566.7 601 533.3 601 500 601C466.7 601 433.3 601 400 601C366.7 601 333.3 601 300 601C266.7 601 233.3 601 200 601C166.7 601 133.3 601 100 601C66.7 601 33.3 601 16.7 601L0 601Z" fill="#f34538"></path><path d="M0 544L16.7 547.2C33.3 550.3 66.7 556.7 100 552.3C133.3 548 166.7 533 200 527.7C233.3 522.3 266.7 526.7 300 530C333.3 533.3 366.7 535.7 400 541.3C433.3 547 466.7 556 500 555.5C533.3 555 566.7 545 600 536.3C633.3 527.7 666.7 520.3 700 517.7C733.3 515 766.7 517 800 524.2C833.3 531.3 866.7 543.7 883.3 549.8L900 556L900 601L883.3 601C866.7 601 833.3 601 800 601C766.7 601 733.3 601 700 601C666.7 601 633.3 601 600 601C566.7 601 533.3 601 500 601C466.7 601 433.3 601 400 601C366.7 601 333.3 601 300 601C266.7 601 233.3 601 200 601C166.7 601 133.3 601 100 601C66.7 601 33.3 601 16.7 601L0 601Z" fill="#ee2f21"></path></svg>