<svg id="visual" viewBox="0 0 900 600" width="900" height="600" xmlns="http://www.w3.org/2000/svg" xmlns:xlink="http://www.w3.org/1999/xlink" version="1.1"><path d="M0 334L25 349C50 364 100 394 150 402.5C200 411 250 398 300 378.8C350 359.7 400 334.3 450 334.8C500 335.3 550 361.7 600 382C650 402.3 700 416.7 750 414.8C800 413 850 395 875 386L900 377L900 601L875 601C850 601 800 601 750 601C700 601 650 601 600 601C550 601 500 601 450 601C400 601 350 601 300 601C250 601 200 601 150 601C100 601 50 601 25 601L0 601Z" fill="#f6574c"></path><path d="M0 414L25 423.8C50 433.7 100 453.3 150 464.3C200 475.3 250 477.7 300 478.3C350 479 400 478 450 468.3C500 458.7 550 440.3 600 425.2C650 410 700 398 750 401.7C800 405.3 850 424.7 875 434.3L900 444L900 601L875 601C850 601 800 601 750 601C700 601 650 601 600 601C550 601 500 601 450 601C400 601 350 601 300 601C250 601 200 601 150 601C100 601 50 601 25 601L0 601Z" fill="#f34538"></path><path d="M0 494L25 498.3C50 502.7 100 511.3 150 520.7C200 530 250 540 300 536.2C350 532.3 400 514.7 450 511.3C500 508 550 519 600 516.7C650 514.3 700 498.7 750 500C800 501.3 850 519.7 875 528.8L900 538L900 601L875 601C850 601 800 601 750 601C700 601 650 601 600 601C550 601 500 601 450 601C400 601 350 601 300 601C250 601 200 601 150 601C100 601 50 601 25 601L0 601Z" fill="#ee2f21"></path></svg>