<svg id="visual" viewBox="0 0 960 540" width="960" height="540" xmlns="http://www.w3.org/2000/svg" xmlns:xlink="http://www.w3.org/1999/xlink" version="1.1"><path d="M343 0L350.2 11.3C357.3 22.7 371.7 45.3 378.8 67.8C386 90.3 386 112.7 371.7 135.2C357.3 157.7 328.7 180.3 325.3 202.8C322 225.3 344 247.7 360.7 270.2C377.3 292.7 388.7 315.3 377 337.8C365.3 360.3 330.7 382.7 313 405.2C295.3 427.7 294.7 450.3 309.7 472.8C324.7 495.3 355.3 517.7 370.7 528.8L386 540L0 540L0 528.8C0 517.7 0 495.3 0 472.8C0 450.3 0 427.7 0 405.2C0 382.7 0 360.3 0 337.8C0 315.3 0 292.7 0 270.2C0 247.7 0 225.3 0 202.8C0 180.3 0 157.7 0 135.2C0 112.7 0 90.3 0 67.8C0 45.3 0 22.7 0 11.3L0 0Z" fill="#ee2f21" stroke-linecap="round" stroke-linejoin="miter"></path></svg>