<svg id="visual" viewBox="0 0 900 600" width="900" height="600" xmlns="http://www.w3.org/2000/svg" xmlns:xlink="http://www.w3.org/1999/xlink" version="1.1"><path d="M0 437L16.7 440.5C33.3 444 66.7 451 100 454.7C133.3 458.3 166.7 458.7 200 453.2C233.3 447.7 266.7 436.3 300 436.7C333.3 437 366.7 449 400 456C433.3 463 466.7 465 500 463C533.3 461 566.7 455 600 456.2C633.3 457.3 666.7 465.7 700 464C733.3 462.3 766.7 450.7 800 448C833.3 445.3 866.7 451.7 883.3 454.8L900 458L900 601L883.3 601C866.7 601 833.3 601 800 601C766.7 601 733.3 601 700 601C666.7 601 633.3 601 600 601C566.7 601 533.3 601 500 601C466.7 601 433.3 601 400 601C366.7 601 333.3 601 300 601C266.7 601 233.3 601 200 601C166.7 601 133.3 601 100 601C66.7 601 33.3 601 16.7 601L0 601Z" fill="#f6574c"></path><path d="M0 483L16.7 487C33.3 491 66.7 499 100 502C133.3 505 166.7 503 200 502.2C233.3 501.3 266.7 501.7 300 495.8C333.3 490 366.7 478 400 469C433.3 460 466.7 454 500 454.3C533.3 454.7 566.7 461.3 600 467.8C633.3 474.3 666.7 480.7 700 488.3C733.3 496 766.7 505 800 499.8C833.3 494.7 866.7 475.3 883.3 465.7L900 456L900 601L883.3 601C866.7 601 833.3 601 800 601C766.7 601 733.3 601 700 601C666.7 601 633.3 601 600 601C566.7 601 533.3 601 500 601C466.7 601 433.3 601 400 601C366.7 601 333.3 601 300 601C266.7 601 233.3 601 200 601C166.7 601 133.3 601 100 601C66.7 601 33.3 601 16.7 601L0 601Z" fill="#f44b3f"></path><path d="M0 534L16.7 534.5C33.3 535 66.7 536 100 534.8C133.3 533.7 166.7 530.3 200 529.2C233.3 528 266.7 529 300 522.8C333.3 516.7 366.7 503.3 400 504.3C433.3 505.3 466.7 520.7 500 522.5C533.3 524.3 566.7 512.7 600 507C633.3 501.3 666.7 501.7 700 504.7C733.3 507.7 766.7 513.3 800 513.2C833.3 513 866.7 507 883.3 504L900 501L900 601L883.3 601C866.7 601 833.3 601 800 601C766.7 601 733.3 601 700 601C666.7 601 633.3 601 600 601C566.7 601 533.3 601 500 601C466.7 601 433.3 601 400 601C366.7 601 333.3 601 300 601C266.7 601 233.3 601 200 601C166.7 601 133.3 601 100 601C66.7 601 33.3 601 16.7 601L0 601Z" fill="#f13e31"></path><path d="M0 550L16.7 546.5C33.3 543 66.7 536 100 536.8C133.3 537.7 166.7 546.3 200 546.5C233.3 546.7 266.7 538.3 300 536.3C333.3 534.3 366.7 538.7 400 539.3C433.3 540 466.7 537 500 539.2C533.3 541.3 566.7 548.7 600 552.3C633.3 556 666.7 556 700 556.2C733.3 556.3 766.7 556.7 800 552.3C833.3 548 866.7 539 883.3 534.5L900 530L900 601L883.3 601C866.7 601 833.3 601 800 601C766.7 601 733.3 601 700 601C666.7 601 633.3 601 600 601C566.7 601 533.3 601 500 601C466.7 601 433.3 601 400 601C366.7 601 333.3 601 300 601C266.7 601 233.3 601 200 601C166.7 601 133.3 601 100 601C66.7 601 33.3 601 16.7 601L0 601Z" fill="#ee2f21"></path></svg>